<svg width="15" height="16" viewBox="0 0 15 16" fill="none" xmlns="http://www.w3.org/2000/svg">
<path fill-rule="evenodd" clip-rule="evenodd" d="M7.5 1.86364C4.11098 1.86364 1.36364 4.61099 1.36364 8.00001C1.36364 11.389 4.11098 14.1364 7.5 14.1364C10.889 14.1364 13.6364 11.389 13.6364 8.00001C13.6364 4.61099 10.889 1.86364 7.5 1.86364ZM0 8.00001C0 3.85787 3.35786 0.500008 7.5 0.500008C11.6421 0.500008 15 3.85787 15 8.00001C15 12.1421 11.6421 15.5 7.5 15.5C3.35786 15.5 0 12.1421 0 8.00001ZM6.81818 5.27274C6.81818 4.89618 7.12344 4.59092 7.5 4.59092H7.50682C7.88338 4.59092 8.18864 4.89618 8.18864 5.27274C8.18864 5.64929 7.88338 5.95455 7.50682 5.95455H7.5C7.12344 5.95455 6.81818 5.64929 6.81818 5.27274ZM7.5 7.31819C7.87656 7.31819 8.18182 7.62345 8.18182 8.00001V10.7273C8.18182 11.1038 7.87656 11.4091 7.5 11.4091C7.12344 11.4091 6.81818 11.1038 6.81818 10.7273V8.00001C6.81818 7.62345 7.12344 7.31819 7.5 7.31819Z" fill="white"/>
</svg>
