<svg width="17" height="17" viewBox="0 0 17 17" fill="none" xmlns="http://www.w3.org/2000/svg">
<path fill-rule="evenodd" clip-rule="evenodd" d="M3.3 7.85C3.3 5.3371 5.3371 3.3 7.84999 3.3C10.3629 3.3 12.4 5.3371 12.4 7.85C12.4 9.07589 11.9152 10.1885 11.1268 11.0067C11.1046 11.0238 11.0832 11.0425 11.0629 11.0629C11.0425 11.0832 11.0238 11.1046 11.0067 11.1268C10.1885 11.9152 9.07589 12.4 7.84999 12.4C5.3371 12.4 3.3 10.3629 3.3 7.85ZM11.5015 12.4207C10.5007 13.2213 9.23125 13.7 7.84999 13.7C4.61913 13.7 2 11.0809 2 7.85C2 4.61913 4.61913 2 7.84999 2C11.0809 2 13.7 4.61913 13.7 7.85C13.7 9.23125 13.2213 10.5007 12.4207 11.5015L14.8096 13.8904C15.0635 14.1442 15.0635 14.5558 14.8096 14.8096C14.5558 15.0635 14.1442 15.0635 13.8904 14.8096L11.5015 12.4207Z" fill="#7878AB"/>
</svg>
