<svg width="8" height="11" viewBox="0 0 8 11" fill="none" xmlns="http://www.w3.org/2000/svg">
<g opacity="0.6">
<path d="M0 9.03572C0 10.1206 0.879441 11 1.96429 11H6.03571C7.12056 11 8 10.1206 8 9.03572C7.99915 8.30663 7.70388 7.60764 7.17896 7.0921C6.65405 6.57655 5.94235 6.28655 5.2 6.28572H2.8C2.05765 6.28655 1.34595 6.57655 0.821037 7.0921C0.296118 7.60764 0.000846945 8.30663 0 9.03572Z" fill="#474747"/>
<path d="M1.19983 2.75C1.19983 3.2939 1.36405 3.82559 1.67171 4.27782C1.97938 4.73006 2.41668 5.08253 2.92832 5.29068C3.43995 5.49882 4.00294 5.55328 4.54608 5.44717C5.08923 5.34106 5.58814 5.07914 5.97973 4.69455C6.37131 4.30995 6.63799 3.81995 6.74603 3.2865C6.85407 2.75305 6.79862 2.20012 6.58669 1.69762C6.37477 1.19513 6.01588 0.765633 5.55543 0.463459C5.09497 0.161285 4.55362 0 3.99983 0C3.25722 0 2.54503 0.289732 2.01993 0.805457C1.49483 1.32118 1.19983 2.02066 1.19983 2.75Z" fill="#474747"/>
</g>
</svg>
